# xmcd
#
# Track frame offsets:
#	150
#	16307
#	31295
#	46667
#	58355
#	75290
#	86252
#	102160
#	115717
#	127132
#	142240
#	157657
#
# Disc length: 2299 seconds
# Revision: 1
# Processed by: cddbd v1.5.2PL0 Copyright (c) Steve Scherf et al.
# Submitted via: dBpowerAMP V12.0
#
DISCID=8d08f90c
DTITLE=包美聖 - 那一盆火
DYEAR=1980
DGENRE=Country
TTITLE0=那一盆火
TTITLE1=走向我 走向你
TTITLE2=沙河.年歲
TTITLE3=鵞
TTITLE4=悲秋
TTITLE5=快樂行
TTITLE6=梅雪爭春
TTITLE7=你.我
TTITLE8=愛的第一個音
TTITLE9=無言歌
TTITLE10=雨情
TTITLE11=迎向永久
EXTD=
EXTT0=
EXTT1=
EXTT2=
EXTT3=
EXTT4=
EXTT5=
EXTT6=
EXTT7=
EXTT8=
EXTT9=
EXTT10=
EXTT11=
PLAYORDER=
